<svg width="40" height="40" viewBox="0 0 40 40" fill="none" xmlns="http://www.w3.org/2000/svg">
<path d="M31.576 14.8988C32.9947 14.8981 34.3834 15.304 35.5754 16.0679C36.7673 16.8317 37.7117 17.921 38.2953 19.2048C38.8788 20.4886 39.0766 21.9124 38.8649 23.3051C38.6532 24.6978 38.041 26.0002 37.1018 27.0559V35.4678C37.1023 35.7027 37.042 35.9337 36.9268 36.1387C36.8116 36.3438 36.6453 36.5161 36.4438 36.639C36.2423 36.762 36.0124 36.8315 35.7761 36.841C35.5397 36.8504 35.3049 36.7995 35.0941 36.6931L34.9283 36.5925L31.576 34.2664L28.2237 36.5925C28.0301 36.7267 27.8051 36.8094 27.5702 36.8327C27.3352 36.856 27.0982 36.8191 26.8817 36.7256C26.6651 36.632 26.4764 36.485 26.3334 36.2984C26.1905 36.1118 26.098 35.892 26.065 35.6599L26.0521 35.4678V27.0522C25.1142 25.9966 24.5031 24.6947 24.2919 23.3027C24.0808 21.9108 24.2787 20.4879 24.8619 19.2049C25.445 17.9218 26.3887 16.8331 27.5796 16.0693C28.7706 15.3055 30.1582 14.899 31.576 14.8988ZM34.3389 28.9979C33.4611 29.3504 32.5229 29.5311 31.576 29.5301C30.6291 29.5311 29.691 29.3504 28.8132 28.9979V32.8364L30.7859 31.4703C30.9878 31.3298 31.224 31.2456 31.4698 31.2263C31.7156 31.207 31.9622 31.2534 32.1839 31.3606L32.3681 31.4703L34.3389 32.8364V28.9979ZM33.8784 2.10526C35.1683 2.10519 36.4096 2.59368 37.3492 3.47109C38.2887 4.3485 38.8557 5.54871 38.9345 6.82693L38.9437 7.13415L38.9456 16.7274C38.1986 15.7401 37.259 14.9123 36.1827 14.2935L36.1808 7.13415C36.1811 6.56825 35.9699 6.02236 35.5882 5.60214C35.2064 5.18191 34.6812 4.91721 34.1142 4.85926L33.8784 4.84829H7.17057C6.60057 4.84803 6.05074 5.05769 5.62747 5.43671C5.2042 5.81573 4.93759 6.33715 4.87922 6.90008L4.86817 7.13415V24.5067C4.86817 25.6898 5.77439 26.6645 6.93481 26.7797L7.17057 26.7925L23.6042 26.7944L23.8308 27.1656L24.0776 27.524L24.2084 27.6959L24.2065 29.5356H7.17057C5.8804 29.5356 4.63884 29.0469 3.69924 28.1691C2.75965 27.2913 2.19284 26.0906 2.1145 24.8121L2.10529 24.5067V7.13415C2.10522 5.85354 2.59725 4.62115 3.481 3.68836C4.36476 2.75556 5.57366 2.19263 6.86113 2.1144L7.17057 2.10526H33.8784ZM31.576 17.6418C30.3545 17.6418 29.183 18.1236 28.3193 18.9811C27.4556 19.8386 26.9703 21.0017 26.9703 22.2144C26.9703 23.4272 27.4556 24.5902 28.3193 25.4478C29.183 26.3053 30.3545 26.7871 31.576 26.7871C32.7976 26.7871 33.969 26.3053 34.8328 25.4478C35.6965 24.5902 36.1818 23.4272 36.1818 22.2144C36.1818 21.0017 35.6965 19.8386 34.8328 18.9811C33.969 18.1236 32.7976 17.6418 31.576 17.6418ZM19.1431 19.4705C19.4931 19.4706 19.83 19.6026 20.0857 19.8398C20.3415 20.0771 20.497 20.4018 20.5209 20.7485C20.5447 21.0952 20.4351 21.438 20.2143 21.7075C19.9934 21.9771 19.6777 22.1533 19.3309 22.2007L19.1431 22.2135H10.8544C10.5044 22.2134 10.1675 22.0814 9.91174 21.8442C9.65598 21.6069 9.50047 21.2822 9.47661 20.9355C9.45275 20.5888 9.56234 20.246 9.78321 19.9765C10.0041 19.7069 10.3198 19.5306 10.6665 19.4833L10.8544 19.4705H19.1431ZM30.1946 9.41269C30.5446 9.4128 30.8815 9.54481 31.1373 9.78204C31.393 10.0193 31.5485 10.344 31.5724 10.6907C31.5963 11.0374 31.4867 11.3802 31.2658 11.6497C31.0449 11.9193 30.7292 12.0956 30.3825 12.1429L30.1946 12.1557H10.8544C10.5044 12.1556 10.1675 12.0236 9.91174 11.7864C9.65598 11.5491 9.50047 11.2244 9.47661 10.8777C9.45275 10.531 9.56234 10.1883 9.78321 9.91869C10.0041 9.64913 10.3198 9.47286 10.6665 9.4255L10.8544 9.41269H30.1946Z" fill="#247BA0"/>
</svg>
